<?xml version="1.0" encoding="UTF-8" standalone="no"?>
<!-- Created with Inkscape (http://www.inkscape.org/) -->

<svg
   width="100.53665mm"
   height="98.387276mm"
   viewBox="0 0 100.53665 98.387276"
   version="1.1"
   id="svg1"
   sodipodi:docname="logo.svg"
   inkscape:version="1.4 (86a8ad7, 2024-10-11)"
   xmlns:inkscape="http://www.inkscape.org/namespaces/inkscape"
   xmlns:sodipodi="http://sodipodi.sourceforge.net/DTD/sodipodi-0.dtd"
   xmlns="http://www.w3.org/2000/svg"
   xmlns:svg="http://www.w3.org/2000/svg">
  <sodipodi:namedview
     id="namedview1"
     pagecolor="#ffffff"
     bordercolor="#000000"
     borderopacity="0.25"
     inkscape:showpageshadow="2"
     inkscape:pageopacity="0.0"
     inkscape:pagecheckerboard="0"
     inkscape:deskcolor="#d1d1d1"
     inkscape:document-units="mm"
     inkscape:zoom="1.0267829"
     inkscape:cx="309.70519"
     inkscape:cy="280.00076"
     inkscape:window-width="1920"
     inkscape:window-height="1017"
     inkscape:window-x="-8"
     inkscape:window-y="-8"
     inkscape:window-maximized="1"
     inkscape:current-layer="layer3" />
  <defs
     id="defs1" />
  <g
     inkscape:label="Layer 1"
     inkscape:groupmode="layer"
     id="layer1"
     transform="translate(-0.2116127,-0.15265183)">
    <circle
       style="fill:#5688ab;fill-opacity:1;fill-rule:evenodd;stroke:none;stroke-width:0.079375;stroke-linecap:round;stroke-linejoin:round"
       id="path1"
       cx="48.314678"
       cy="50.436863"
       r="48.103065" />
    <circle
       style="fill:#f5f5f5;fill-opacity:1;fill-rule:evenodd;stroke:#000000;stroke-width:0;stroke-linecap:round;stroke-linejoin:round;stroke-dasharray:none;stroke-opacity:1"
       id="path2"
       cx="48.314678"
       cy="50.436863"
       r="39.721474" />
    <path
       sodipodi:type="star"
       style="fill:#5688ab;fill-opacity:1;fill-rule:evenodd;stroke:none;stroke-width:2.80001;stroke-linecap:square;stroke-linejoin:miter;stroke-dasharray:none;stroke-opacity:1;paint-order:normal"
       id="path3"
       inkscape:flatsided="false"
       sodipodi:sides="4"
       sodipodi:cx="139.75398"
       sodipodi:cy="108.77853"
       sodipodi:r1="5.105093"
       sodipodi:r2="2.5525465"
       sodipodi:arg1="1.5350972"
       sodipodi:arg2="2.3204954"
       inkscape:rounded="0"
       inkscape:randomized="0"
       d="m 139.93619,113.88037 -1.92156,-3.23365 -3.36249,-1.68599 3.23365,-1.92156 1.68598,-3.36248 1.92157,3.23364 3.36248,1.68599 -3.23364,1.92156 z"
       transform="translate(-60.035186,-101.413)" />
    <path
       sodipodi:type="star"
       style="fill:#5688ab;fill-opacity:1;fill-rule:evenodd;stroke:none;stroke-width:2.80001;stroke-linecap:square;stroke-linejoin:miter;stroke-dasharray:none;stroke-opacity:1;paint-order:normal"
       id="path4"
       inkscape:flatsided="false"
       sodipodi:sides="4"
       sodipodi:cx="151.77975"
       sodipodi:cy="117.70675"
       sodipodi:r1="9.2908516"
       sodipodi:r2="4.6454258"
       sodipodi:arg1="0.44610555"
       sodipodi:arg2="1.2315037"
       inkscape:rounded="0"
       inkscape:randomized="0"
       d="m 160.16135,121.71534 -6.8355,0.372 -5.55468,4.001 -0.37201,-6.8355 -4.001,-5.55468 6.8355,-0.372 5.55468,-4.00101 0.37201,6.83551 z"
       transform="translate(-59.413087,-104.00545)" />
    <path
       sodipodi:type="star"
       style="fill:#5688ab;fill-opacity:1;fill-rule:evenodd;stroke:none;stroke-width:2.80001;stroke-linecap:square;stroke-linejoin:miter;stroke-dasharray:none;stroke-opacity:1;paint-order:normal"
       id="path5"
       inkscape:flatsided="false"
       sodipodi:sides="4"
       sodipodi:cx="148.31779"
       sodipodi:cy="103.13006"
       sodipodi:r1="3.8652279"
       sodipodi:r2="1.932614"
       sodipodi:arg1="1.4288993"
       sodipodi:arg2="2.2142974"
       inkscape:rounded="0"
       inkscape:randomized="0"
       d="m 148.86442,106.95644 -1.70619,-2.28029 -2.66682,-0.99947 2.28029,-1.70619 0.99947,-2.666812 1.70619,2.280292 2.66682,0.99946 -2.28029,1.7062 z"
       transform="translate(-60.368341,-99.151026)" />
  </g>
  <g
     inkscape:groupmode="layer"
     id="layer3"
     inkscape:label="Layer 2"
     transform="translate(-0.2116127,-0.15265183)">
    <path
       id="text3"
       style="font-size:50.8px;font-family:Arial;-inkscape-font-specification:Arial;fill:#5688ab;fill-rule:evenodd;stroke-width:2.8;stroke-linecap:square"
       inkscape:label="text3"
       d="m 30.443584,30.585301 c -5.091478,0.10203 -10.397119,2.32843 -13.617004,6.4684 -3.281577,4.25521 -4.329144,9.93998 -3.918152,15.13707 0.335235,4.43939 1.665113,8.92334 4.478516,12.43945 0.636748,0.7662 1.505445,1.67647 2.380575,2.34538 3.97362,3.09273 9.307421,3.71305 14.172459,3.09915 5.311187,-0.70756 10.05587,-4.46883 12.00458,-9.45548 0.59839,-1.41215 1.01272,-2.82469 1.38379,-4.29764 -2.30273,-0.58204 -4.605467,-1.16407 -6.908201,-1.7461 -0.542093,3.16994 -1.897338,6.54793 -4.835242,8.19935 -4.453208,2.57693 -10.914781,1.21121 -13.606165,-3.27552 -1.72054,-2.94562 -2.084035,-6.46597 -2.046573,-9.81593 0.09583,-3.24233 0.726439,-6.65526 2.726261,-9.29345 1.990263,-2.47212 5.216911,-3.67857 8.341355,-3.58645 2.818962,-0.0494 5.804299,1.17939 7.243564,3.70917 0.79239,1.25736 1.266022,2.67766 1.735393,4.07846 2.257813,-0.53125 4.515628,-1.0625 6.773438,-1.59375 -1.08389,-4.48716 -3.857051,-8.78154 -8.127121,-10.7954 -2.558523,-1.24346 -5.373285,-1.6929 -8.181473,-1.61671 z m 20.603514,39.09179 c 2.3099,0 4.61979,0 6.92969,0 0,-5.71354 0,-11.42708 0,-17.14062 5.5944,0 11.1888,0 16.7832,0 0,5.71354 0,11.42708 0,17.14062 2.3099,0 4.61979,0 6.92969,0 0,-12.82682 0,-25.65364 0,-38.48046 -2.3099,0 -4.61979,0 -6.92969,0 0,4.97721 0,9.95442 0,14.93164 -5.5944,0 -11.1888,0 -16.7832,0 0,-4.97722 0,-9.95443 0,-14.93164 -2.3099,0 -4.61979,0 -6.92969,0 0,12.82682 0,25.65364 0,38.48046 z" />
  </g>
</svg>
